<svg xmlns="http://www.w3.org/2000/svg" version="1.1" xmlns:xlink="http://www.w3.org/1999/xlink" viewBox="0 0 200 200" width="200" height="200"><metadata><rdf:RDF xmlns:rdf="http://www.w3.org/1999/02/22-rdf-syntax-ns#" xmlns:dc="http://purl.org/dc/elements/1.1/"><rdf:Description><dc:creator>RealFaviconGenerator</dc:creator><dc:source>https://realfavicongenerator.net</dc:source></rdf:Description></rdf:RDF></metadata><rect width="200" height="200" fill="url('#gradient')"></rect><defs><linearGradient id="gradient" gradientTransform="rotate(115 0.5 0.5)"><stop offset="0%" stop-color="#ee7700"></stop><stop offset="100%" stop-color="#766844"></stop></linearGradient></defs><g><g fill="#ffffff" transform="matrix(1.8081224249558563,0,0,1.8081224249558563,23.869511263941654,109.17042186472119)" stroke="#6a4d54" stroke-width="0.2"><path d="M8.41-3.78L8.41-3.78Q8.41-4.53 7.88-4.95Q7.34-5.37 6.01-5.82Q4.67-6.27 3.82-6.69L3.82-6.69Q1.05-8.05 1.05-10.42L1.05-10.42Q1.05-11.60 1.74-12.50Q2.43-13.41 3.69-13.91Q4.95-14.41 6.52-14.41L6.52-14.41Q8.06-14.41 9.27-13.87Q10.49-13.32 11.16-12.31Q11.84-11.30 11.84-10L11.84-10L8.42-10Q8.42-10.87 7.89-11.35Q7.35-11.83 6.45-11.83L6.45-11.83Q5.53-11.83 5.00-11.42Q4.46-11.02 4.46-10.39L4.46-10.39Q4.46-9.84 5.05-9.40Q5.63-8.96 7.11-8.48Q8.58-8.01 9.53-7.46L9.53-7.46Q11.84-6.13 11.84-3.80L11.84-3.80Q11.84-1.93 10.43-0.87Q9.02 0.20 6.57 0.20L6.57 0.20Q4.84 0.20 3.44-0.42Q2.04-1.04 1.33-2.12Q0.63-3.20 0.63-4.61L0.63-4.61L4.06-4.61Q4.06-3.47 4.65-2.92Q5.24-2.38 6.57-2.38L6.57-2.38Q7.42-2.38 7.92-2.75Q8.41-3.12 8.41-3.78ZM13.98-13.19L17.28-13.19L17.28-10.57L19.01-10.57L19.01-8.28L17.28-8.28L17.28-3.45Q17.28-2.85 17.49-2.62Q17.71-2.38 18.34-2.38L18.34-2.38Q18.83-2.38 19.16-2.44L19.16-2.44L19.16-0.09Q18.27 0.20 17.30 0.20L17.30 0.20Q15.61 0.20 14.79-0.61Q13.98-1.41 13.98-3.04L13.98-3.04L13.98-8.28L12.64-8.28L12.64-10.57L13.98-10.57L13.98-13.19ZM19.61-4.82L19.60-5.38Q19.60-6.96 20.21-8.20Q20.83-9.43 21.98-10.10Q23.13-10.76 24.69-10.76L24.69-10.76Q27.06-10.76 28.43-9.29Q29.79-7.82 29.79-5.29L29.79-5.29L29.79-5.18Q29.79-2.71 28.42-1.25Q27.05 0.20 24.71 0.20L24.71 0.20Q22.45 0.20 21.08-1.16Q19.72-2.51 19.61-4.82L19.61-4.82ZM22.90-5.77L22.89-5.18Q22.89-3.71 23.35-3.03Q23.81-2.34 24.71-2.34L24.71-2.34Q26.46-2.34 26.50-5.05L26.50-5.05L26.50-5.38Q26.50-8.22 24.69-8.22L24.69-8.22Q23.04-8.22 22.90-5.77L22.90-5.77ZM37.70-10.64L37.64-7.59L36.55-7.67Q35-7.67 34.56-6.69L34.56-6.69L34.56 0L31.27 0L31.27-10.57L34.36-10.57L34.46-9.21Q35.29-10.76 36.78-10.76L36.78-10.76Q37.30-10.76 37.70-10.64L37.70-10.64ZM41.55-10.57L43.22-4.61L44.98-10.57L48.51-10.57L44.20 1.77L44.01 2.22Q43.10 4.27 40.77 4.27L40.77 4.27Q40.13 4.27 39.41 4.07L39.41 4.07L39.41 1.72L39.84 1.72Q40.54 1.72 40.90 1.52Q41.27 1.32 41.45 0.80L41.45 0.80L41.71 0.10L38.04-10.57L41.55-10.57ZM58.42 0L57.59-2.66L52.89-2.66L52.07 0L48.41 0L53.62-14.22L56.85-14.22L62.10 0L58.42 0ZM55.23-10.23L53.71-5.30L56.77-5.30L55.23-10.23ZM72.32-5.36L72.32-5.21Q72.32-2.74 71.22-1.27Q70.11 0.20 68.22 0.20L68.22 0.20Q66.77 0.20 65.83-0.87L65.83-0.87L65.83 4.06L62.54 4.06L62.54-10.57L65.62-10.57L65.71-9.59Q66.66-10.76 68.20-10.76L68.20-10.76Q70.16-10.76 71.24-9.32Q72.32-7.88 72.32-5.36L72.32-5.36ZM69.03-5.06L69.03-5.41Q69.03-8.22 67.39-8.22L67.39-8.22Q66.22-8.22 65.83-7.38L65.83-7.38L65.83-3.22Q66.26-2.34 67.41-2.34L67.41-2.34Q68.98-2.34 69.03-5.06L69.03-5.06ZM83.58-5.36L83.58-5.21Q83.58-2.74 82.48-1.27Q81.37 0.20 79.48 0.20L79.48 0.20Q78.03 0.20 77.09-0.87L77.09-0.87L77.09 4.06L73.80 4.06L73.80-10.57L76.88-10.57L76.97-9.59Q77.92-10.76 79.46-10.76L79.46-10.76Q81.42-10.76 82.50-9.32Q83.58-7.88 83.58-5.36L83.58-5.36ZM80.29-5.06L80.29-5.41Q80.29-8.22 78.65-8.22L78.65-8.22Q77.48-8.22 77.09-7.38L77.09-7.38L77.09-3.22Q77.52-2.34 78.67-2.34L78.67-2.34Q80.24-2.34 80.29-5.06L80.29-5.06Z"></path></g></g></svg>